<svg id="Layer_1" data-name="Layer 1" xmlns="http://www.w3.org/2000/svg" viewBox="0 0 381.16 133.03"><defs><style>.cls-1{fill:#fff;}.cls-2,.cls-3,.cls-4,.cls-5{isolation:isolate;}.cls-2,.cls-4,.cls-5{font-size:24px;font-family:MyriadPro-Regular, Myriad Pro;}.cls-4{letter-spacing:-0.01em;}.cls-5{letter-spacing:0.02em;}.cls-6{fill:none;stroke:#000;stroke-miterlimit:10;stroke-width:6px;}</style></defs><title>mccarthyvision-spaced</title><path class="cls-1" d="M352.19,12.07H482.07q0,63.48,0,127H352.19Q352.19,75.55,352.19,12.07Zm127.08,3.31H355.21l62,105.52Z" transform="translate(-119.07 -6)"/><path d="M479.27,15.38l-62,105.52-62-105.52ZM365.17,21l52.09,88.2,52-88.2Z" transform="translate(-119.07 -6)"/><path class="cls-1" d="M365.17,21h104.1l-52,88.2ZM444.85,52.3c-16.66-20.19-42.35-17-54.89.12C404.74,70.66,428.79,70.69,444.85,52.3Z" transform="translate(-119.07 -6)"/><path d="M444.85,52.3c-16.06,18.39-40.11,18.36-54.89.12C402.5,35.3,428.18,32.11,444.85,52.3Zm-52.19.11c13.72,16.55,37.21,16.41,49.17-.29C428.73,35.55,404.39,35.69,392.66,52.41Z" transform="translate(-119.07 -6)"/><path class="cls-1" d="M392.66,52.41c11.74-16.72,36.08-16.87,49.17-.29C429.87,68.83,406.37,69,392.66,52.41Zm24.69,11.41a11.85,11.85,0,0,0,11.94-11.58c0-6.24-5.46-11.72-11.84-11.83s-12.29,5.57-12.19,12A11.85,11.85,0,0,0,417.34,63.83Z" transform="translate(-119.07 -6)"/><path d="M417.34,63.83A11.85,11.85,0,0,1,405.25,52.4c-.1-6.41,5.68-12.09,12.19-12s11.87,5.6,11.84,11.83A11.85,11.85,0,0,1,417.34,63.83Zm-.08-1.62c6.27-.08,10.57-4.29,10.45-10.24s-4.59-9.84-11-9.69a9.78,9.78,0,0,0-9.94,10.22C406.95,58.25,411.29,62.28,417.27,62.2Z" transform="translate(-119.07 -6)"/><path class="cls-1" d="M417.27,62.2c-6,.07-10.32-4-10.46-9.71a9.78,9.78,0,0,1,9.94-10.22c6.37-.15,10.85,3.81,11,9.69S423.54,62.13,417.27,62.2ZM416,58.43c5.84-.44,8.55-2.77,8-6.75s-3.26-5.77-7.23-5.62c-4.14.15-5.93,2.35-5.7,7.17C415.79,51.69,416.94,53.92,416,58.43Z" transform="translate(-119.07 -6)"/><path d="M416,58.43c1-4.51-.19-6.73-4.94-5.2-.23-4.82,1.56-7,5.7-7.17,4-.15,6.66,1.53,7.23,5.62S421.82,58,416,58.43Z" transform="translate(-119.07 -6)"/><text class="cls-2" transform="translate(333.93 75.04)">ision</text><g class="cls-3"><text class="cls-2" transform="translate(171.93 77.04)">c</text><text class="cls-4" transform="translate(182.68 77.04)">C</text><text class="cls-2" transform="translate(196.43 77.04)">a</text><text class="cls-5" transform="translate(208 77.04)">r</text><text class="cls-2" transform="translate(216.43 77.04)">t</text><text class="cls-4" transform="translate(224.37 77.04)">h</text><text class="cls-2" transform="translate(237.38 77.04)">y</text></g><polygon class="cls-6" points="185.43 112.16 62.92 112.27 124.27 6 185.43 112.16"/><polygon class="cls-6" points="127.71 112.16 5.2 112.27 66.55 6 127.71 112.16"/></svg>