<svg id="Layer_1" data-name="Layer 1" xmlns="http://www.w3.org/2000/svg" viewBox="0 0 271.2 135.01"><defs><style>.cls-1{fill:#fff;}.cls-2{fill:none;stroke:#000;stroke-miterlimit:10;stroke-width:7px;}</style></defs><title>mccarthyvision-triangles</title><path class="cls-1" d="M389.4,140H253.8q0-67.29,0-134.57H389.4Q389.4,72.71,389.4,140ZM255.66,7.81l65.49,111.37L386.65,7.81Z" transform="translate(-118.21 -4.99)"/><path d="M255.66,7.81h131l-65.5,111.37Zm65.54,98.72,55-92.65H266Z" transform="translate(-118.21 -4.99)"/><path class="cls-1" d="M321.2,106.53,266,13.87H376.25Zm28.74-59.65c-19.54-21.81-42.13-17.16-58.17.19C309.67,65.4,331.56,67.71,349.95,46.88Z" transform="translate(-118.21 -4.99)"/><path d="M349.95,46.88c-18.39,20.83-40.28,18.52-58.17.19C307.82,29.72,330.41,25.07,349.95,46.88Zm-54.47.21c16.24,18.63,38.58,16.35,51.26-.36C332.5,29.51,309.81,29.52,295.47,47.09Z" transform="translate(-118.21 -4.99)"/><path class="cls-1" d="M295.47,47.09c14.34-17.57,37-17.59,51.26-.36C334.05,63.44,311.72,65.72,295.47,47.09Zm26-12.62c-6.23-.14-12.19,5.67-12.44,12.12a12.59,12.59,0,0,0,11.74,12.67c6.59.32,12.64-5.51,12.7-12.23C333.5,40.65,327.74,34.61,321.46,34.47Z" transform="translate(-118.21 -4.99)"/><path d="M321.46,34.47c6.28.14,12,6.18,12,12.56-.06,6.72-6.1,12.55-12.7,12.23A12.59,12.59,0,0,1,309,46.59C309.26,40.13,315.23,34.32,321.46,34.47ZM310.66,46.74a10.56,10.56,0,1,0,10.53-10.33A10.36,10.36,0,0,0,310.66,46.74Z" transform="translate(-118.21 -4.99)"/><path class="cls-1" d="M310.66,46.74a10.56,10.56,0,1,1,10.06,10.81A10.36,10.36,0,0,1,310.66,46.74Zm9.55,6.93c5.28-.32,7.86-2.76,7.57-7.21-.25-3.91-2.84-6.24-6.9-6-4.25.27-6.29,2.79-6.16,7.48C319.68,46.64,321.78,48.3,320.22,53.67Z" transform="translate(-118.21 -4.99)"/><path d="M320.22,53.67c1.56-5.37-.53-7-5.49-5.71-.13-4.69,1.91-7.21,6.16-7.48,4.05-.26,6.65,2.07,6.9,6C328.07,50.91,325.49,53.34,320.22,53.67Z" transform="translate(-118.21 -4.99)"/><polygon class="cls-2" points="186.29 113.16 63.78 113.27 125.13 7.01 186.29 113.16"/><polygon class="cls-2" points="128.58 113.16 6.07 113.27 67.42 7.01 128.58 113.16"/></svg>